<svg width="374" height="284" viewBox="0 0 374 284" fill="none" xmlns="http://www.w3.org/2000/svg"><path d="M14 207.12h8.79l25.17 39.11a44.369 44.369 0 0 1 2.4 4.25v-43.36h8.34v56.1h-8.82l-25.09-39.11a44.369 44.369 0 0 1-2.4-4.25v43.36H14v-56.1zm54.79 16.35h8.18v23.88c0 6.17 3.2 9.46 8.81 9.46 5.85 0 10.42-5 10.42-11.86v-21.48h8.18v39.75H96.2v-6.42a14.107 14.107 0 0 1-12.9 7.53c-7.78 0-14.51-4.81-14.51-15.3v-25.56z" fill="#1E65F3"/><path d="M164.31 249.6c-5.85 9.53-12.42 14.74-24.52 14.74-15.95 0-27.81-12-27.81-29.17S124.64 206 140.19 206c11.46 0 20.11 6 24 14.5l-6.89 5c-4-7.77-9.54-11.62-17.23-11.62-10.58 0-19.24 9-19.24 21.32 0 12.18 8.1 21.32 19.16 21.32 7.53 0 13.46-3.61 17.71-11.62l6.61 4.7zm9.2 22.2a9.615 9.615 0 0 0 3.61.8c2.08 0 3.36-.64 4.81-4.25l1.84-4.89-16.19-40h9.38l11.22 28.69 11.14-28.69h9l-19.23 47.77c-2.56 6.49-6.33 8.89-11.14 8.89a19.398 19.398 0 0 1-5.77-.88l1.33-7.44zm40.64-48.33h8.17v6.09c2.49-3.93 7.94-7.21 14.11-7.21 9.93 0 18.35 7.85 18.35 21 0 12.9-8.42 21-19.07 21-5.7 0-10.83-2.56-13.39-6.57v21.8h-8.17v-56.11zm7.64 19.88c0 8 5.53 13.46 12.34 13.46s12.34-5.45 12.34-13.46c0-8.01-5.53-13.47-12.34-13.47s-12.34 5.45-12.34 13.47zm76.41 19.87h-8.17v-24.36c0-5.69-3.37-9-8.82-9-5.85 0-10.9 4.81-10.9 12.34v21h-8.17v-56.1h8.17v23a16.414 16.414 0 0 1 13.79-7.77c7.77 0 14.1 4.89 14.1 14v26.89zm14.45-18.11c.32 7.05 5.05 12.1 12.1 12.1 6.49 0 9.54-3.53 11.86-8.26l6.33 3.77c-3.68 7.61-9.46 11.62-18.43 11.62-10.9 0-20-8.57-20-21s9.14-21 20.44-21c11.54 0 19.24 8.25 19.24 19.87v2.89l-31.54.01zm0-6.25h23.72c-.64-6.49-6.09-9.94-11.62-9.94-5.96 0-10.58 4.17-12.1 9.94zm59.56-9.34a10.189 10.189 0 0 0-3.12-.48c-5.77 0-9.94 5.21-9.94 12.26v20.92h-8.17v-39.75h8.17v6.73c2.16-4.65 6-7.85 11.46-7.85a12.7 12.7 0 0 1 3 .4l-1.4 7.77z" fill="#121112"/><path d="M239.46.075l-19.664 9.432a.849.849 0 0 0-.405 1.128l29.923 63.728c11.128 23.704 8.142 41.68-8.768 49.784-13.677 6.552-25.487 1.976-34.698-13.992l-35.426-75.432c-14.367-30.576-33.938-38.688-57.144-27.56-15.103 7.2-23.863 20.168-23.688 36.584a.854.854 0 0 1-.183.52.838.838 0 0 1-1.005.244.844.844 0 0 1-.397-.38l-7.73-16.464a.85.85 0 0 0-.48-.434.838.838 0 0 0-.644.034L59.477 36.69a.864.864 0 0 0-.396 1.136l54.332 115.688a.85.85 0 0 0 .48.437.838.838 0 0 0 .645-.037l19.665-9.424a.845.845 0 0 0 .404-1.128l-29.09-61.96c-11.88-25.224-9.6-43.472 8.561-52.176 13.948-6.68 24.782-2.192 34.508 14.92a.5.5 0 0 0 .04.064l35.07 74.688c13.527 28.8 34.555 38.696 56.764 28.056 17.154-8.224 24.275-20.6 23.855-36.88a.852.852 0 0 1 .643-.817.839.839 0 0 1 .941.433l7.832 16.672a.844.844 0 0 0 .799.487.833.833 0 0 0 .318-.079l19.658-9.472a.79.79 0 0 0 .491-.807.777.777 0 0 0-.096-.321L240.57.483a.844.844 0 0 0-1.11-.408z" fill="#1E65F3"/></svg>