<svg version="1" xmlns="http://www.w3.org/2000/svg" width="2726.667" height="694.667" viewBox="0 0 2045.000000 521.000000"><path d="M0 260.5V521h487v-60H59V59h428V0H0v260.5z"/><path d="M462 99.6c-42.8 5.4-73.5 27.9-85.1 62.4-2.8 8.4-3.2 11.2-3.7 23.5-.9 28.9 5.2 46.7 21.8 63.4 16.4 16.4 37.9 25.5 81 34.1 28.1 5.6 40.5 9.9 50.4 17.5 12 9.1 16 27.6 9.1 41.8-3.5 7.2-11.7 15-19 18.3-17.8 7.8-48.3 6.6-66.6-2.6-7.8-4-16.4-12.6-20.7-20.7-3.9-7.5-7.2-19.7-7.2-27V305h-60v4.2c.1 21.8 7.3 46.9 18.5 63.9 5.9 8.9 17.7 21 26 26.6 24.7 16.6 58.3 24.4 93.3 21.4 34.1-2.8 58.2-12.8 75.9-31.4 11.6-12.3 18.6-26.1 21.8-43.2 2.5-13.1 1.7-41.9-1.4-52.5-7.8-26.5-27.8-44-63.8-56-6.5-2.1-17.4-5-24.3-6.5-23.9-4.9-42.5-9.7-49.8-12.7-17.3-7.2-24.7-16.5-24.7-30.8.1-16 9.5-26.3 28.6-31.1 11-2.8 31.1-2.3 40.3 1 17.3 6.2 29 19.6 31.8 36.4l1.1 6.7h59l-.7-9.8c-1.4-20.5-5.7-33.5-15.9-48.7-13.9-20.4-36.2-34.3-65.2-40.7-6.7-1.5-13.8-2-28-2.3-10.4-.2-20.6-.1-22.5.1zM737 260v155h59V105h-59v155zm176.6-146.8c-2.9 4.6-21.3 33.2-40.9 63.6L837 232.1v56.4l42.2 63.2 42.1 63.3h71.9l-1.9-2.8c-1-1.6-24.2-35.8-51.5-75.9-38.4-56.3-49.8-73.8-49.8-76.1 0-2.2 12-21.6 48.3-77.8 26.5-41.2 48.6-75.5 49-76.2.7-.9-6.4-1.2-33.8-1.2H919l-5.4 8.2zm256.4-7.6c0 .6-71.6 301.2-73 306.2l-.8 3.2h62.4l7.4-32.8c4-18 7.5-33.3 7.8-34 .3-1 11.3-1.2 52-1l51.5.3 7.6 33.5 7.6 33.5 31.3.3c29.6.2 31.3.1 30.8-1.5-.3-1-16.8-69.8-36.6-152.8-19.8-83.1-36.2-152-36.5-153.3l-.5-2.2h-55.5c-30.5 0-55.5.3-55.5.6zm59 29.6c.1.2 7.8 34.5 17.3 76.3l17.2 76-37.9.3c-20.8.1-38 .1-38.1 0-.2-.2 19.2-86 32.1-141.6l2.6-11.2h3.4c1.9 0 3.4.1 3.4.2zM1508 260v155h200v-56h-141V105h-59v155zm335 0v155h202v-56h-143V162h143v-57h-202v155z"/><path d="M1943 260.5V289h57v-57h-57v28.5z"/></svg>