<svg xmlns="http://www.w3.org/2000/svg" viewBox="0 0 1006.5867 123.76" height="123.76" width="1006.587"><path d="M178.244 99.038c1.557-.163 2.523-.431 2.892-.798.368-.37.553-.843.553-1.415V50.804h-21.164c-.657 0-1.149.227-1.476.677-.33.451-.574 1.375-.738 2.768h-1.478V32.346h1.478c.164 1.396.408 2.32.738 2.77.327.45.819.676 1.476.676h60.786c.654 0 1.146-.225 1.476-.676.326-.45.573-1.374.738-2.77h1.476V54.25h-1.476c-.165-1.393-.412-2.317-.738-2.768-.33-.45-.822-.677-1.476-.677h-21.164v46.02c0 .573.184 1.046.553 1.416.37.367 1.332.635 2.892.798v1.478h-25.348v-1.478m77.764-2.214c0 .902.327 1.476.985 1.721.656.246 1.476.411 2.46.492v1.478h-23.378v-1.478c.985-.08 1.804-.246 2.461-.492.656-.245.984-.82.984-1.721V50.067c0-.901-.328-1.477-.984-1.724-.657-.247-1.476-.41-2.461-.492v-1.476h23.378v1.476c-.984.081-1.804.245-2.46.492-.658.247-.985.823-.985 1.724v15.502h27.195V50.067c0-.901-.33-1.477-.984-1.724-.659-.247-1.478-.41-2.463-.492v-1.476h23.38v1.476c-.984.081-1.807.245-2.461.492-.658.247-.984.823-.984 1.724v46.758c0 .902.326 1.476.984 1.721.654.246 1.477.411 2.461.492v1.478h-23.38v-1.478c.985-.08 1.804-.246 2.463-.492.654-.245.984-.82.984-1.721V78.12h-27.195v18.704m66.815-46.757c0-.901-.35-1.477-1.047-1.724-.697-.247-1.537-.41-2.521-.492v-1.476H341.4v1.476c-.409.081-.86.245-1.352.492-.493.247-.738.823-.738 1.724v29.9c0 3.118 1.128 5.35 3.384 6.705 2.253 1.354 5.229 2.03 8.92 2.03 3.692 0 6.664-.676 8.921-2.03 2.256-1.354 3.384-3.587 3.384-6.704V50.067c0-.901-.247-1.477-.739-1.724a5.45 5.45 0 0 0-1.353-.492v-1.476h22.15v1.476c-.986.081-1.827.245-2.523.492-.698.247-1.047.823-1.047 1.724v27.07c0 3.281-.492 6.379-1.476 9.29a19.125 19.125 0 0 1-4.8 7.628c-2.213 2.174-5.167 3.857-8.857 5.046-3.692 1.188-8.246 1.782-13.66 1.782s-9.967-.594-13.658-1.782c-3.692-1.19-6.644-2.872-8.86-5.046a19.122 19.122 0 0 1-4.798-7.629c-.984-2.91-1.476-6.008-1.476-9.289v-27.07m141.134 46.758c0 .902.327 1.476.985 1.721.655.246 1.476.411 2.46.492v1.478h-22.764v-1.478c.656 0 1.415-.08 2.276-.246.862-.164 1.294-.613 1.294-1.353 0-.738-.904-2.112-2.71-4.124-1.804-2.008-4.12-4.49-6.949-7.444-2.83-2.952-6.01-6.252-9.537-9.903a222.573 222.573 0 0 1-10.459-11.63l-.245.248v32.239c0 .902.306 1.476.921 1.721.615.246 1.375.411 2.277.492v1.478h-21.042v-1.478c.82-.08 1.538-.246 2.154-.492.615-.245.923-.82.923-1.721V50.067c0-.901-.328-1.477-.985-1.724-.658-.247-1.436-.41-2.336-.492v-1.476H429.5v1.476a6.775 6.775 0 0 0-1.721.492c-.575.247-.861.823-.861 1.724 0 .165.677 1.005 2.029 2.52a379.672 379.672 0 0 0 5.23 5.723 1405.65 1405.65 0 0 0 7.137 7.63c2.625 2.79 5.249 5.578 7.876 8.366v-24.24c0-.9-.33-1.476-.984-1.723-.658-.247-1.478-.41-2.462-.492v-1.476H467.4v1.476c-.984.081-1.805.245-2.46.492-.658.247-.985.823-.985 1.724v46.758m46.881-8.123c6.397 0 10.992-1.125 13.78-3.384 2.788-2.254 4.184-6.214 4.184-11.873 0-5.661-1.396-9.617-4.184-11.875-2.788-2.255-7.383-3.382-13.78-3.382h-8.859v30.514zm-25.347-38.635c0-.901-.309-1.477-.924-1.724-.616-.247-1.374-.41-2.276-.492v-1.476h36.914c4.593 0 8.49.737 11.689 2.215 3.2 1.477 5.845 3.445 7.937 5.905 2.092 2.46 3.608 5.335 4.554 8.613.941 3.284 1.414 6.728 1.414 10.337 0 3.61-.473 7.055-1.414 10.335-.946 3.283-2.462 6.152-4.554 8.613-2.092 2.461-4.737 4.432-7.937 5.908-3.199 1.475-7.096 2.215-11.69 2.215H482.29v-1.478c.902-.08 1.66-.246 2.276-.492.615-.245.924-.82.924-1.721V50.067m126.858 39.621c1.643 0 2.708-1.026 3.2-3.077h1.476v16.12h-1.23c-.411-1.15-.842-1.806-1.293-1.969-.45-.166-1.169-.246-2.153-.246h-54.879v-1.478c.903-.08 1.702-.246 2.4-.492.696-.245 1.046-.82 1.046-1.721V50.067c0-.901-.35-1.477-1.046-1.724-.698-.247-1.497-.41-2.4-.492v-1.476h55.863c.495 0 .985-.164 1.477-.493.492-.327.739-1.065.739-2.214h1.476v16.487h-1.476c0-1.23-.247-2.03-.739-2.4-.492-.37-.982-.552-1.477-.552h-35.93v9.966h23.133c.493 0 .986-.184 1.477-.554.492-.368.74-1.126.74-2.276h1.475v15.996h-1.475c0-1.147-.248-1.906-.74-2.276-.49-.369-.984-.554-1.477-.554h-23.132v12.183h34.945M669.563 70c2.625 0 4.696-.555 6.214-1.661 1.518-1.108 2.278-2.77 2.278-4.983 0-1.888-.636-3.465-1.907-4.739-1.273-1.269-3.753-1.907-7.445-1.907h-16.61V70zm-32.975-19.933c0-.901-.29-1.477-.861-1.724a6.785 6.785 0 0 0-1.846-.492v-1.476h39.498c6.152 0 11.053 1.435 14.704 4.306 3.648 2.873 5.476 7.137 5.476 12.797 0 4.43-1.292 7.936-3.878 10.52-2.582 2.584-5.844 4.614-9.781 6.09l10.95 16.49c.411.658 1.005 1.23 1.786 1.723.779.49 1.619.737 2.523.737v1.478h-24.856v-1.478c.573 0 1.209-.101 1.908-.307.696-.203 1.045-.635 1.045-1.292 0-.409-.43-1.434-1.293-3.075-.86-1.64-1.844-3.404-2.952-5.292a1333.048 1333.048 0 0 0-3.2-5.416c-1.027-1.721-1.66-2.828-1.907-3.321h-11.81v16.49c0 .902.305 1.476.92 1.721.615.246 1.371.411 2.277.492v1.478h-21.164v-1.478a6.978 6.978 0 0 0 1.6-.492c.572-.245.861-.82.861-1.721V50.067m132.644 8.737c.08-.248.141-.513.185-.801.039-.288.06-.634.06-1.047 0-.655-.553-1.311-1.66-1.967-1.108-.657-2.585-1.25-4.432-1.786-1.844-.531-3.957-.984-6.336-1.352a48.863 48.863 0 0 0-7.504-.554c-2.461 0-5.046.286-7.753.86-2.707.575-5.188 1.52-7.444 2.832a16.472 16.472 0 0 0-5.537 5.227c-1.436 2.176-2.154 4.822-2.154 7.938 0 3.117.718 5.763 2.154 7.937a16.432 16.432 0 0 0 5.537 5.228c2.256 1.314 4.737 2.258 7.444 2.831 2.707.576 5.292.86 7.753.86 1.064 0 2.746-.184 5.043-.553a59.108 59.108 0 0 0 6.892-1.538c2.295-.654 4.325-1.394 6.09-2.215 1.762-.819 2.646-1.68 2.646-2.583 0-.41-.083-.74-.247-.984a7.954 7.954 0 0 1-.492-.862l1.352-.862 12.675 19.319-1.476.86c-.165-.408-.39-.676-.676-.799-.29-.124-.637-.185-1.045-.185-.576 0-1.724.35-3.447 1.047-1.721.697-3.96 1.436-6.705 2.215-2.75.781-5.968 1.476-9.659 2.091-3.692.616-7.835.922-12.428.922-4.923 0-9.803-.633-14.644-1.906-4.841-1.271-9.187-3.28-13.041-6.029-3.858-2.747-6.974-6.193-9.352-10.336-2.382-4.14-3.568-8.96-3.568-14.458 0-5.496 1.186-10.315 3.568-14.457 2.378-4.143 5.494-7.588 9.352-10.338 3.854-2.747 8.2-4.817 13.041-6.213 4.841-1.394 9.721-2.091 14.644-2.091 4.921 0 9.165.267 12.735.8 3.569.533 6.582 1.127 9.044 1.783 2.377.658 4.224 1.211 5.538 1.66 1.31.454 2.295.679 2.951.679.74 0 1.353-.328 1.847-.985l1.354.37-11.074 20.302-1.231-.86m57.46-.124c-2.297 0-4.472.351-6.521 1.05-2.051.7-3.856 1.688-5.415 2.965a13.32 13.32 0 0 0-3.628 4.635c-.863 1.812-1.295 3.87-1.295 6.177 0 2.306.432 4.366 1.295 6.177a13.314 13.314 0 0 0 3.628 4.633c1.559 1.277 3.364 2.266 5.415 2.967 2.049.7 4.224 1.05 6.521 1.05 2.379 0 4.572-.35 6.583-1.05 2.009-.7 3.793-1.69 5.353-2.967a13.318 13.318 0 0 0 3.63-4.633c.86-1.811 1.291-3.871 1.291-6.177 0-2.306-.432-4.365-1.292-6.177a13.323 13.323 0 0 0-3.629-4.635c-1.56-1.277-3.344-2.265-5.353-2.966-2.011-.698-4.204-1.05-6.583-1.05zm0-13.045c3.855 0 7.73.536 11.628 1.601 3.896 1.066 7.423 2.73 10.583 4.983 3.156 2.257 5.72 5.15 7.69 8.676 1.968 3.527 2.952 7.71 2.952 12.55 0 4.922-.984 9.125-2.952 12.611-1.97 3.488-4.534 6.337-7.69 8.552-3.16 2.217-6.687 3.814-10.583 4.8-3.897.984-7.773 1.475-11.628 1.475-3.857 0-7.732-.49-11.628-1.475-3.897-.986-7.425-2.583-10.581-4.8-3.159-2.215-5.723-5.064-7.691-8.552-1.968-3.486-2.955-7.689-2.955-12.61 0-4.84.987-9.024 2.955-12.551 1.968-3.526 4.532-6.42 7.69-8.676 3.157-2.254 6.685-3.917 10.582-4.983 3.896-1.065 7.77-1.6 11.628-1.6M908.764 70c2.623 0 4.693-.555 6.213-1.661 1.518-1.108 2.276-2.77 2.276-4.983 0-1.888-.636-3.465-1.906-4.739-1.274-1.269-3.752-1.907-7.446-1.907H891.29V70zm-32.977-19.933c0-.901-.288-1.477-.86-1.724a6.82 6.82 0 0 0-1.847-.492v-1.476h39.497c6.152 0 11.054 1.435 14.704 4.306 3.65 2.873 5.478 7.137 5.478 12.797 0 4.43-1.294 7.936-3.876 10.52-2.586 2.584-5.846 4.614-9.783 6.09l10.95 16.49c.41.658 1.003 1.23 1.785 1.723.778.49 1.618.737 2.521.737v1.478h-24.855v-1.478c.574 0 1.211-.101 1.908-.307.696-.203 1.046-.635 1.046-1.292 0-.409-.43-1.434-1.292-3.075a128.82 128.82 0 0 0-2.952-5.292 1079.218 1079.218 0 0 0-3.202-5.416c-1.025-1.721-1.66-2.828-1.905-3.321h-11.815v16.49c0 .902.31 1.476.926 1.721.614.246 1.372.411 2.276.492v1.478h-21.164v-1.478a7.017 7.017 0 0 0 1.6-.492c.572-.245.86-.82.86-1.721V50.067m126.123 39.621c1.64 0 2.705-1.026 3.198-3.077h1.477v16.12h-1.23c-.412-1.15-.844-1.806-1.294-1.969-.452-.166-1.168-.246-2.152-.246h-54.88v-1.478c.903-.08 1.703-.246 2.4-.492.695-.245 1.046-.82 1.046-1.721V50.067c0-.901-.351-1.477-1.046-1.724-.697-.247-1.497-.41-2.4-.492v-1.476h55.864c.492 0 .984-.164 1.478-.493.49-.327.737-1.065.737-2.214h1.477v16.487h-1.477c0-1.23-.247-2.03-.737-2.4-.494-.37-.986-.552-1.478-.552h-35.929v9.966h23.132c.493 0 .984-.184 1.477-.554.492-.368.738-1.126.738-2.276h1.476v15.996h-1.476c0-1.147-.246-1.906-.738-2.276-.493-.369-.984-.554-1.477-.554h-23.132v12.183h34.945M117.88 61.293c0-31.178-25.375-56.55-56.567-56.55-31.188 0-56.564 25.372-56.564 56.55 0 31.192 25.376 56.563 56.564 56.563 31.192 0 56.568-25.371 56.568-56.563zM61.314-.007c33.807 0 61.312 27.5 61.312 61.3 0 33.809-27.505 61.313-61.312 61.313-33.805 0-61.312-27.504-61.312-61.313 0-33.8 27.507-61.3 61.312-61.3" fill="#373a3e"/><path d="M93.94 56.67l7.212-23.424H72.599l5.164-8.11-12.675 8.11H31.737l-7.154 23.425H49.29L45.65 68.8 30.184 91.28l11.172-8.471-.387 1.475-5.098 15.183h27.307l9.82-40.668 2.81-2.13zM61.314 4.743c31.192 0 56.568 25.373 56.568 56.551 0 31.192-25.376 56.563-56.568 56.563-31.188 0-56.564-25.371-56.564-56.563 0-31.178 25.376-56.55 56.564-56.55" fill="#eedd07"/><path d="M35.447 49.909l19.508-12.455-20.922-.057-4.84 15.688 13.928.089zm24.35 44.994l7.283-27.8-21.632 16.848-3.511 10.952zM41.554 79.365l32.517-24.65-14.372-6.031.892-1.427 8.568-13.442.066-.123L44.593 49.46l12.89 6.735zm49.858-26.191l5.128-15.777H73.723l-6.3 10.287 14.367 5.42zm9.74-19.928L93.94 56.671H75.807l-2.81 2.129-9.82 40.668H35.87l5.098-15.183.387-1.475-11.172 8.471L45.65 68.8l3.639-12.13H24.583l7.154-23.424h33.351l12.675-8.11-5.164 8.11h28.553" fill="#373a3e"/><path d="M96.54 37.397l-5.128 15.777-9.622-.07-14.368-5.42 6.301-10.287H96.54" fill="#eedd07"/><path d="M74.07 54.715l-32.516 24.65 15.93-23.17-12.89-6.735 24.63-15.768-.065.123-8.568 13.442-.892 1.427 14.372 6.031M67.08 67.103l-7.283 27.8h-17.86l3.511-10.952L67.08 67.103" fill="#eedd07"/><path d="M54.955 37.454L35.447 49.91l7.674 3.265-13.929-.09 4.84-15.687 20.923.057" fill="#eedd07"/></svg>